<svg
  xmlns="http://www.w3.org/2000/svg"
  viewBox="0 0 512 512"
  fill="none"
>
  <defs>
    <linearGradient id="gearMetal" x1="68" y1="66" x2="438" y2="456" gradientUnits="userSpaceOnUse">
      <stop offset="0" stop-color="#fafafa" />
      <stop offset="0.34" stop-color="#b7bcc4" />
      <stop offset="0.64" stop-color="#f3f4f6" />
      <stop offset="1" stop-color="#8c939d" />
    </linearGradient>
    <linearGradient id="toothMetal" x1="136" y1="88" x2="378" y2="424" gradientUnits="userSpaceOnUse">
      <stop offset="0" stop-color="#2b3139" />
      <stop offset="1" stop-color="#090b0f" />
    </linearGradient>
    <radialGradient id="coreFill" cx="0" cy="0" r="1" gradientUnits="userSpaceOnUse" gradientTransform="translate(206 156) rotate(53.7) scale(348)">
      <stop offset="0" stop-color="#3f4247" />
      <stop offset="0.4" stop-color="#17191e" />
      <stop offset="0.86" stop-color="#07090d" />
      <stop offset="1" stop-color="#040507" />
    </radialGradient>
    <linearGradient id="innerRing" x1="128" y1="96" x2="392" y2="416" gradientUnits="userSpaceOnUse">
      <stop offset="0" stop-color="#ffffff" />
      <stop offset="0.48" stop-color="#bfc5cc" />
      <stop offset="1" stop-color="#f4f4f5" />
    </linearGradient>
    <linearGradient id="textFill" x1="176" y1="136" x2="356" y2="390" gradientUnits="userSpaceOnUse">
      <stop offset="0" stop-color="#ffffff" />
      <stop offset="0.42" stop-color="#d4d4d8" />
      <stop offset="0.76" stop-color="#f5f5f5" />
      <stop offset="1" stop-color="#a1a1aa" />
    </linearGradient>
    <filter id="logoShadow" x="20" y="20" width="472" height="472" filterUnits="userSpaceOnUse" color-interpolation-filters="sRGB">
      <feDropShadow dx="0" dy="18" stdDeviation="18" flood-color="#020617" flood-opacity="0.34" />
    </filter>
    <filter id="textShadow" x="102" y="122" width="308" height="145" filterUnits="userSpaceOnUse" color-interpolation-filters="sRGB">
      <feDropShadow dx="0" dy="4" stdDeviation="6" flood-color="#020617" flood-opacity="0.42" />
    </filter>
    <filter id="barShadow" x="94" y="286" width="324" height="108" filterUnits="userSpaceOnUse" color-interpolation-filters="sRGB">
      <feDropShadow dx="0" dy="3" stdDeviation="5" flood-color="#020617" flood-opacity="0.36" />
    </filter>
  </defs>

  <g filter="url(#logoShadow)">
    <g opacity="0.98">
      <rect x="238" y="14" width="36" height="56" rx="10" fill="url(#toothMetal)" transform="rotate(0 256 256)" />
      <rect x="238" y="14" width="36" height="56" rx="10" fill="url(#toothMetal)" transform="rotate(22.5 256 256)" />
      <rect x="238" y="14" width="36" height="56" rx="10" fill="url(#toothMetal)" transform="rotate(45 256 256)" />
      <rect x="238" y="14" width="36" height="56" rx="10" fill="url(#toothMetal)" transform="rotate(67.5 256 256)" />
      <rect x="238" y="14" width="36" height="56" rx="10" fill="url(#toothMetal)" transform="rotate(90 256 256)" />
      <rect x="238" y="14" width="36" height="56" rx="10" fill="url(#toothMetal)" transform="rotate(112.5 256 256)" />
      <rect x="238" y="14" width="36" height="56" rx="10" fill="url(#toothMetal)" transform="rotate(135 256 256)" />
      <rect x="238" y="14" width="36" height="56" rx="10" fill="url(#toothMetal)" transform="rotate(157.5 256 256)" />
      <rect x="238" y="14" width="36" height="56" rx="10" fill="url(#toothMetal)" transform="rotate(180 256 256)" />
      <rect x="238" y="14" width="36" height="56" rx="10" fill="url(#toothMetal)" transform="rotate(202.5 256 256)" />
      <rect x="238" y="14" width="36" height="56" rx="10" fill="url(#toothMetal)" transform="rotate(225 256 256)" />
      <rect x="238" y="14" width="36" height="56" rx="10" fill="url(#toothMetal)" transform="rotate(247.5 256 256)" />
      <rect x="238" y="14" width="36" height="56" rx="10" fill="url(#toothMetal)" transform="rotate(270 256 256)" />
      <rect x="238" y="14" width="36" height="56" rx="10" fill="url(#toothMetal)" transform="rotate(292.5 256 256)" />
      <rect x="238" y="14" width="36" height="56" rx="10" fill="url(#toothMetal)" transform="rotate(315 256 256)" />
      <rect x="238" y="14" width="36" height="56" rx="10" fill="url(#toothMetal)" transform="rotate(337.5 256 256)" />
    </g>

    <circle cx="256" cy="256" r="225" fill="url(#gearMetal)" />
    <circle cx="256" cy="256" r="225" stroke="#ffffff" stroke-opacity="0.55" stroke-width="6" />
    <circle cx="256" cy="256" r="188" fill="#030508" stroke="url(#innerRing)" stroke-width="14" />
    <circle cx="256" cy="256" r="176" fill="url(#coreFill)" stroke="#0f172a" stroke-width="6" />
    <path
      d="M120 198C170 138 256 112 332 132C382 146 418 174 446 212V162C405 112 336 82 256 82C184 82 116 110 72 156V214C86 208 102 202 120 198Z"
      fill="#ffffff"
      fill-opacity="0.08"
    />

    <g filter="url(#textShadow)">
      <text
        x="256"
        y="186"
        text-anchor="middle"
        fill="url(#textFill)"
        font-size="58"
        font-family="Arial Black, Arial, Helvetica, sans-serif"
        font-weight="900"
        letter-spacing="2"
      >
        LIFT
      </text>
      <text
        x="256"
        y="266"
        text-anchor="middle"
        fill="url(#textFill)"
        font-size="56"
        font-family="Arial Black, Arial, Helvetica, sans-serif"
        font-weight="900"
        letter-spacing="1"
      >
        TRACKER
      </text>
    </g>

    <g filter="url(#barShadow)" stroke="url(#textFill)" stroke-linecap="round" stroke-linejoin="round">
      <path d="M124 356H174" stroke-width="6" />
      <path d="M338 356H388" stroke-width="6" />
      <path d="M208 356H224L236 342L249 382L266 326L278 356H304" stroke-width="7" />

      <path d="M174 332V380" stroke-width="8" />
      <path d="M187 320V392" stroke-width="16" />
      <path d="M199 338V374" stroke-width="8" />

      <path d="M338 332V380" stroke-width="8" />
      <path d="M325 320V392" stroke-width="16" />
      <path d="M313 338V374" stroke-width="8" />

      <path d="M114 356H146" stroke-width="5" />
      <path d="M366 356H398" stroke-width="5" />
    </g>
  </g>
</svg>
